{"title":"Mulk 2018 Hindi 720p WEB-DL x264 [MW]","magnet":"magnet:?xt=urn:btih:246c2335ebbdf0c6fbdaa3c31e35769f4f133cfc&dn=Mulk+2018+Hindi+720p+WEB-DL+x264+%5BMW%5D&tr=udp%3A%2F%2Ftracker.leechers-paradise.org%3A6969&tr=udp%3A%2F%2Fzer0day.ch%3A1337&tr=udp%3A%2F%2Fopen.demonii.com%3A1337&tr=udp%3A%2F%2Ftracker.coppersurfer.tk%3A6969&tr=udp%3A%2F%2Fexodus.desync.com%3A6969","uploader":"MFreaky","categoryP":"video","categoryS":"hd___movies","size":"1150597615","seeders":"17","leechers":"39","description":" <a href=\"https://pichub.site/image/ETheT\" rel=\"nofollow\" target=\"_NEW\">https://pichub.site/image/ETheT</a> <a href=\"\nhttps://pichub.site/image/ETC2V\" rel=\"nofollow\" target=\"_NEW\">\nhttps://pichub.site/image/ETC2V</a> <a href=\"\nhttps://pichub.site/image/ETtkN\" rel=\"nofollow\" target=\"_NEW\">\nhttps://pichub.site/image/ETtkN</a> <a href=\"\nhttps://pichub.site/image/ETzxD\" rel=\"nofollow\" target=\"_NEW\">\nhttps://pichub.site/image/ETzxD</a> <a href=\"\nhttps://pichub.site/image/ETBDg\" rel=\"nofollow\" target=\"_NEW\">\nhttps://pichub.site/image/ETBDg</a>\r\n\r\nIMDB <a href=\"\nhttps://www.imdb.com/title/tt7618184/\" rel=\"nofollow\" target=\"_NEW\">\nhttps://www.imdb.com/title/tt7618184/</a>\r\n\r\nVideo\r\nFormat                                   : AVC\r\nFormat/Info                              : Advanced Video Codec\r\nFormat profile                           : High@L4.1\r\nFormat settings                          : CABAC / 5 Ref Frames\r\nFormat settings, CABAC                   : Yes\r\nFormat settings, RefFrames               : 5 frames\r\nCodec ID                                 : V_MPEG4/ISO/AVC\r\nDuration                                 : 2 h 14 min\r\nBit rate                                 : 1 000 kb/s\r\nWidth                                    : 1 280 pixels\r\nHeight                                   : 536 pixels\r\nDisplay aspect ratio                     : 2.40:1\r\nFrame rate mode                          : Constant\r\nFrame rate                               : 25.000 FPS\r\nColor space                              : YUV\r\nChroma subsampling                       : 4:2:0\r\nBit depth                                : 8 bits\r\nBits/(Pixel*Frame)                       : 0.058\r\nStream size                              : 972 MiB (89%)\r\nWriting library                          : x264 core 155 r2901 7d0ff22\r\n\r\nAudio\r\nFormat                                   : AAC\r\nFormat/Info                              : Advanced Audio Codec\r\nFormat profile                           : LC\r\nCodec ID                                 : A_AAC-2\r\nDuration                                 : 2 h 14 min\r\nBit rate                                 : 128 kb/s\r\nChannel(s)                               : 2 channels\r\nChannel positions                        : Front: L R\r\nSampling rate                            : 48.0 kHz\r\nFrame rate                               : 46.875 FPS (1024 SPF)\r\nStream size                              : 123 MiB (11%)\r\nLanguage                                 : Hindi","last_updated":"2018-10-03T12:10:41.836Z","parsed":{"xt":"urn:btih:246c2335ebbdf0c6fbdaa3c31e35769f4f133cfc","dn":"Mulk 2018 Hindi 720p WEB-DL x264 [MW]","tr":["udp://exodus.desync.com:6969","udp://open.demonii.com:1337","udp://tracker.coppersurfer.tk:6969","udp://tracker.leechers-paradise.org:6969","udp://zer0day.ch:1337"],"infoHash":"246c2335ebbdf0c6fbdaa3c31e35769f4f133cfc","infoHashBuffer":{"type":"Buffer","data":[36,108,35,53,235,189,240,198,251,218,163,195,30,53,118,159,79,19,60,252]},"name":"Mulk 2018 Hindi 720p WEB-DL x264 [MW]","announce":["udp://exodus.desync.com:6969","udp://open.demonii.com:1337","udp://tracker.coppersurfer.tk:6969","udp://tracker.leechers-paradise.org:6969","udp://zer0day.ch:1337"],"urlList":[]}}